<?xml version="1.0" encoding="UTF-8"?>
<!DOCTYPE svg PUBLIC "-//W3C//DTD SVG 1.1//EN" "http://www.w3.org/Graphics/SVG/1.1/DTD/svg11.dtd">
<svg xmlns="http://www.w3.org/2000/svg" version="1.1" width="170px" height="143px" style="shape-rendering:geometricPrecision; text-rendering:geometricPrecision; image-rendering:optimizeQuality; fill-rule:evenodd; clip-rule:evenodd" xmlns:xlink="http://www.w3.org/1999/xlink">
<g><path style="opacity:0.863" fill="#f7a59b" d="M 83.5,15.5 C 81.4855,16.9238 79.1522,17.5905 76.5,17.5C 78.5145,16.0762 80.8478,15.4095 83.5,15.5 Z"/></g>
<g><path style="opacity:1" fill="#f06247" d="M 116.5,24.5 C 113.865,25.4735 111.865,27.1402 110.5,29.5C 107.763,29.5987 105.096,29.2653 102.5,28.5C 97.1001,27.2388 91.7667,27.5721 86.5,29.5C 77.0076,33.0043 69.6743,39.0043 64.5,47.5C 64.1667,47.5 63.8333,47.5 63.5,47.5C 63.631,46.7611 63.4643,46.0944 63,45.5C 57.9427,48.7319 52.776,51.7319 47.5,54.5C 46.5052,59.7921 46.1718,65.1254 46.5,70.5C 45.1914,63.9322 45.1914,57.2656 46.5,50.5C 47.404,49.791 47.7373,48.791 47.5,47.5C 47.7073,44.7594 48.7073,42.4261 50.5,40.5C 51.6737,39.4863 52.3404,38.153 52.5,36.5C 53.9063,36.0269 54.573,35.0269 54.5,33.5C 55.9063,33.0269 56.573,32.0269 56.5,30.5C 57.8333,28.5 59.5,26.8333 61.5,25.5C 63.0269,25.573 64.0269,24.9063 64.5,23.5C 66.0269,23.573 67.0269,22.9063 67.5,21.5C 70.0878,19.3754 73.0878,18.0421 76.5,17.5C 79.1522,17.5905 81.4855,16.9238 83.5,15.5C 95.9229,13.4207 106.923,16.4207 116.5,24.5 Z"/></g>
<g><path style="opacity:0.761" fill="#f7a7a0" d="M 67.5,21.5 C 67.0269,22.9063 66.0269,23.573 64.5,23.5C 64.9731,22.0937 65.9731,21.427 67.5,21.5 Z"/></g>
<g><path style="opacity:0.894" fill="#f8a79f" d="M 56.5,27.5 C 56.1583,26.6618 55.4916,26.3284 54.5,26.5C 56.5078,24.7324 58.6744,23.0657 61,21.5C 60.5735,24.1207 59.0735,26.1207 56.5,27.5 Z"/></g>
<g><path style="opacity:0.729" fill="#f7aea9" d="M 64.5,23.5 C 64.0269,24.9063 63.0269,25.573 61.5,25.5C 61.9731,24.0937 62.9731,23.427 64.5,23.5 Z"/></g>
<g><path style="opacity:1" fill="#f6794f" d="M 116.5,24.5 C 118.404,24.7376 119.738,25.7376 120.5,27.5C 120.973,28.9063 121.973,29.573 123.5,29.5C 125.094,32.7642 127.427,35.4309 130.5,37.5C 130.631,38.2389 130.464,38.9056 130,39.5C 129.184,38.1772 128.017,37.5106 126.5,37.5C 121.367,34.3514 116.034,31.6848 110.5,29.5C 111.865,27.1402 113.865,25.4735 116.5,24.5 Z"/></g>
<g><path style="opacity:0.016" fill="#f8d3d0" d="M 120.5,27.5 C 122.027,27.427 123.027,28.0937 123.5,29.5C 121.973,29.573 120.973,28.9063 120.5,27.5 Z"/></g>
<g><path style="opacity:0.106" fill="#f3cac8" d="M 102.5,28.5 C 97.1554,28.6865 91.8221,29.0199 86.5,29.5C 91.7667,27.5721 97.1001,27.2388 102.5,28.5 Z"/></g>
<g><path style="opacity:0.827" fill="#f9c1b3" d="M 123.5,29.5 C 126.573,31.5691 128.906,34.2358 130.5,37.5C 127.427,35.4309 125.094,32.7642 123.5,29.5 Z"/></g>
<g><path style="opacity:0.753" fill="#f8aca5" d="M 51.5,29.5 C 49.7607,32.2427 47.4274,34.2427 44.5,35.5C 46.2393,32.7573 48.5726,30.7573 51.5,29.5 Z"/></g>
<g><path style="opacity:0.596" fill="#f7bdbc" d="M 56.5,30.5 C 56.573,32.0269 55.9063,33.0269 54.5,33.5C 54.5,32.8333 54.5,32.1667 54.5,31.5C 55.1667,31.1667 55.8333,30.8333 56.5,30.5 Z"/></g>
<g><path style="opacity:1" fill="#f25c42" d="M 112.5,33.5 C 113.78,34.9313 115.447,35.5979 117.5,35.5C 118.857,37.4988 118.19,38.6655 115.5,39C 117.441,39.7429 119.274,39.5762 121,38.5C 121.75,39.1258 122.584,39.6258 123.5,40C 120.962,41.6305 118.295,42.9639 115.5,44C 116.5,44.3333 117.5,44.6667 118.5,45C 115.553,47.1642 112.219,47.9975 108.5,47.5C 107.167,47.5 105.833,47.5 104.5,47.5C 93.732,46.5284 84.732,49.8618 77.5,57.5C 76.1266,57.3433 74.7932,57.51 73.5,58C 72.1667,58.6667 72.1667,59.3333 73.5,60C 69.7031,61.701 67.0365,63.8677 65.5,66.5C 64.8333,65.8333 64.1667,65.1667 63.5,64.5C 63.3054,60.0848 63.8054,55.7514 65,51.5C 65.7542,48.3156 67.2542,45.6489 69.5,43.5C 70.9063,43.0269 71.573,42.0269 71.5,40.5C 80.7974,31.9949 91.7974,28.8283 104.5,31C 107.457,31.2794 110.123,32.1127 112.5,33.5 Z"/></g>
<g><path style="opacity:0.345" fill="#f7bcb6" d="M 112.5,33.5 C 114.553,33.4021 116.22,34.0687 117.5,35.5C 115.447,35.5979 113.78,34.9313 112.5,33.5 Z"/></g>
<g><path style="opacity:0.373" fill="#f7b9b6" d="M 54.5,33.5 C 54.573,35.0269 53.9063,36.0269 52.5,36.5C 52.5,35.8333 52.5,35.1667 52.5,34.5C 53.1667,34.1667 53.8333,33.8333 54.5,33.5 Z"/></g>
<g><path style="opacity:0.443" fill="#f7b7b4" d="M 44.5,35.5 C 44.573,37.0269 43.9063,38.0269 42.5,38.5C 42.427,36.9731 43.0937,35.9731 44.5,35.5 Z"/></g>
<g><path style="opacity:0.184" fill="#f7bebb" d="M 52.5,36.5 C 52.3404,38.153 51.6737,39.4863 50.5,40.5C 50.5,39.5 50.5,38.5 50.5,37.5C 51.1667,37.1667 51.8333,36.8333 52.5,36.5 Z"/></g>
<g><path style="opacity:0.91" fill="#f9ab8f" d="M 126.5,37.5 C 128.017,37.5106 129.184,38.1772 130,39.5C 130.464,38.9056 130.631,38.2389 130.5,37.5C 134.272,39.415 136.106,42.415 136,46.5C 132.938,43.2678 129.771,40.2678 126.5,37.5 Z"/></g>
<g><path style="opacity:1" fill="#f57059" d="M 54.5,26.5 C 55.4916,26.3284 56.1583,26.6618 56.5,27.5C 55.3995,28.6049 54.7329,29.9382 54.5,31.5C 53.0937,31.9731 52.427,32.9731 52.5,34.5C 51.0937,34.9731 50.427,35.9731 50.5,37.5C 48.9899,39.322 47.6566,41.322 46.5,43.5C 45.0687,44.7804 44.4021,46.4471 44.5,48.5C 43.6803,54.7974 43.347,61.1308 43.5,67.5C 42.8142,61.7661 42.1476,55.9328 41.5,50C 40.8333,49.3333 40.1667,49.3333 39.5,50C 36.9638,52.705 34.2971,55.205 31.5,57.5C 32.3824,53.4069 34.049,49.7403 36.5,46.5C 37.9063,46.0269 38.573,45.0269 38.5,43.5C 39.9063,43.0269 40.573,42.0269 40.5,40.5C 40.8333,39.5 41.5,38.8333 42.5,38.5C 43.9063,38.0269 44.573,37.0269 44.5,35.5C 47.4274,34.2427 49.7607,32.2427 51.5,29.5C 52.1667,28.1667 53.1667,27.1667 54.5,26.5 Z"/></g>
<g><path style="opacity:0.635" fill="#f7b1af" d="M 71.5,40.5 C 71.573,42.0269 70.9063,43.0269 69.5,43.5C 69.427,41.9731 70.0937,40.9731 71.5,40.5 Z"/></g>
<g><path style="opacity:0.725" fill="#f9b2a4" d="M 124.5,39.5 C 126.23,40.0256 127.564,41.0256 128.5,42.5C 126.368,42.4456 125.035,41.4456 124.5,39.5 Z"/></g>
<g><path style="opacity:0.267" fill="#f7c1c0" d="M 40.5,40.5 C 40.573,42.0269 39.9063,43.0269 38.5,43.5C 38.427,41.9731 39.0937,40.9731 40.5,40.5 Z"/></g>
<g><path style="opacity:1" fill="#f36b41" d="M 117.5,35.5 C 120.331,36.0787 122.664,37.412 124.5,39.5C 125.035,41.4456 126.368,42.4456 128.5,42.5C 130.167,43.5 131.5,44.8333 132.5,46.5C 132.427,48.0269 133.094,49.0269 134.5,49.5C 134.427,51.0269 135.094,52.0269 136.5,52.5C 136.557,53.609 136.89,54.609 137.5,55.5C 134.731,56.9722 131.731,58.1389 128.5,59C 130.167,59.3333 131.833,59.6667 133.5,60C 131.231,62.0229 128.564,62.8563 125.5,62.5C 125.167,62.5 124.833,62.5 124.5,62.5C 124.672,61.5084 124.338,60.8417 123.5,60.5C 123.167,60.5 122.833,60.5 122.5,60.5C 122.5,60.1667 122.5,59.8333 122.5,59.5C 122.068,58.2905 121.401,57.2905 120.5,56.5C 120.167,56.5 119.833,56.5 119.5,56.5C 119.5,55.8333 119.167,55.5 118.5,55.5C 118.5,55.1667 118.5,54.8333 118.5,54.5C 117.738,52.7376 116.404,51.7376 114.5,51.5C 113.833,51.5 113.167,51.5 112.5,51.5C 111.833,50.8333 111.167,50.1667 110.5,49.5C 109.833,48.8333 109.167,48.1667 108.5,47.5C 112.219,47.9975 115.553,47.1642 118.5,45C 117.5,44.6667 116.5,44.3333 115.5,44C 118.295,42.9639 120.962,41.6305 123.5,40C 122.584,39.6258 121.75,39.1258 121,38.5C 119.274,39.5762 117.441,39.7429 115.5,39C 118.19,38.6655 118.857,37.4988 117.5,35.5 Z"/></g>
<g><path style="opacity:0.408" fill="#f7b6b2" d="M 38.5,43.5 C 38.573,45.0269 37.9063,46.0269 36.5,46.5C 36.427,44.9731 37.0937,43.9731 38.5,43.5 Z"/></g>
<g><path style="opacity:0.227" fill="#edc3c3" d="M 46.5,43.5 C 46.5979,45.5529 45.9313,47.2196 44.5,48.5C 44.4021,46.4471 45.0687,44.7804 46.5,43.5 Z"/></g>
<g><path style="opacity:1" fill="#f9a18f" d="M 104.5,47.5 C 105.833,47.5 107.167,47.5 108.5,47.5C 109.167,48.1667 109.833,48.8333 110.5,49.5C 109.5,49.5 108.5,49.5 107.5,49.5C 106.5,48.8333 105.5,48.1667 104.5,47.5 Z"/></g>
<g><path style="opacity:0.733" fill="#f8bdb2" d="M 132.5,46.5 C 133.906,46.9731 134.573,47.9731 134.5,49.5C 133.094,49.0269 132.427,48.0269 132.5,46.5 Z"/></g>
<g><path style="opacity:0.475" fill="#edc6c6" d="M 47.5,47.5 C 47.7373,48.791 47.404,49.791 46.5,50.5C 46.0618,50.5654 45.7284,50.3988 45.5,50C 46.0659,49.0053 46.7326,48.172 47.5,47.5 Z"/></g>
<g><path style="opacity:0.545" fill="#f8b8b1" d="M 63.5,47.5 C 63.8333,47.5 64.1667,47.5 64.5,47.5C 64.2041,49.403 63.5375,51.0697 62.5,52.5C 62.366,50.7085 62.6993,49.0418 63.5,47.5 Z"/></g>
<g><path style="opacity:1" fill="#f15938" d="M 63.5,47.5 C 62.6993,49.0418 62.366,50.7085 62.5,52.5C 61.5151,56.6344 61.1818,60.9677 61.5,65.5C 59.8791,67.1172 57.8791,68.2838 55.5,69C 59.2721,69.6107 59.2721,70.6107 55.5,72C 52.408,72.7358 49.408,72.5691 46.5,71.5C 46.5,71.1667 46.5,70.8333 46.5,70.5C 46.1718,65.1254 46.5052,59.7921 47.5,54.5C 52.776,51.7319 57.9427,48.7319 63,45.5C 63.4643,46.0944 63.631,46.7611 63.5,47.5 Z"/></g>
<g><path style="opacity:1" fill="#f46c45" d="M 107.5,49.5 C 108.78,50.9313 110.447,51.5979 112.5,51.5C 112.842,52.3382 113.508,52.6716 114.5,52.5C 114.5,53.1667 114.833,53.5 115.5,53.5C 115.5,54.1667 115.833,54.5 116.5,54.5C 116.5,55.8333 117.167,56.5 118.5,56.5C 118.557,57.609 118.89,58.609 119.5,59.5C 118.641,61.546 117.141,62.8794 115,63.5C 111.813,64.8681 108.647,65.2014 105.5,64.5C 104.078,63.075 102.411,62.075 100.5,61.5C 97.4572,60.1568 94.4572,58.8234 91.5,57.5C 89.0314,56.6829 86.3647,56.1829 83.5,56C 84.056,55.6174 84.3893,55.1174 84.5,54.5C 86.7005,52.3596 89.3672,50.8596 92.5,50C 97.4889,49.5007 102.489,49.3341 107.5,49.5 Z"/></g>
<g><path style="opacity:0.651" fill="#f8b2a1" d="M 134.5,49.5 C 135.906,49.9731 136.573,50.9731 136.5,52.5C 135.094,52.0269 134.427,51.0269 134.5,49.5 Z"/></g>
<g><path style="opacity:0.018" fill="#f9c4bc" d="M 114.5,52.5 C 114.5,52.1667 114.5,51.8333 114.5,51.5C 116.404,51.7376 117.738,52.7376 118.5,54.5C 117.167,54.8333 117.167,55.1667 118.5,55.5C 118.5,55.8333 118.5,56.1667 118.5,56.5C 117.167,56.5 116.5,55.8333 116.5,54.5C 115.833,54.5 115.5,54.1667 115.5,53.5C 114.833,53.5 114.5,53.1667 114.5,52.5 Z"/></g>
<g><path style="opacity:0.251" fill="#f8c9c0" d="M 136.5,52.5 C 137.906,52.9731 138.573,53.9731 138.5,55.5C 138.167,55.5 137.833,55.5 137.5,55.5C 136.89,54.609 136.557,53.609 136.5,52.5 Z"/></g>
<g><path style="opacity:0.147" fill="#f6bfb9" d="M 84.5,54.5 C 84.3893,55.1174 84.056,55.6174 83.5,56C 86.3647,56.1829 89.0314,56.6829 91.5,57.5C 88.1501,57.665 84.8168,57.4983 81.5,57C 82.0779,55.583 83.0779,54.7496 84.5,54.5 Z"/></g>
<g><path style="opacity:0.025" fill="#f9cbc4" d="M 118.5,56.5 C 118.833,56.5 119.167,56.5 119.5,56.5C 119.833,57.8333 120.167,57.8333 120.5,56.5C 121.401,57.2905 122.068,58.2905 122.5,59.5C 121.833,59.5 121.5,59.8333 121.5,60.5C 120.833,60.1667 120.167,59.8333 119.5,59.5C 118.89,58.609 118.557,57.609 118.5,56.5 Z"/></g>
<g><path style="opacity:0.053" fill="#f7d4d4" d="M 62.5,52.5 C 62.1832,56.7016 62.5166,60.7016 63.5,64.5C 63.5,65.5 63.5,66.5 63.5,67.5C 62.8333,66.8333 62.1667,66.1667 61.5,65.5C 61.1818,60.9677 61.5151,56.6344 62.5,52.5 Z"/></g>
<g><path style="opacity:1" fill="#f57157" d="M 77.5,57.5 C 75.268,60.6305 73.6013,63.9639 72.5,67.5C 71.8333,70.5 71.1667,73.5 70.5,76.5C 67.7691,73.7049 66.1025,70.3716 65.5,66.5C 67.0365,63.8677 69.7031,61.701 73.5,60C 72.1667,59.3333 72.1667,58.6667 73.5,58C 74.7932,57.51 76.1266,57.3433 77.5,57.5 Z"/></g>
<g><path style="opacity:1" fill="#f36141" d="M 43.5,67.5 C 43.5,67.8333 43.5,68.1667 43.5,68.5C 43.2964,71.5453 43.2964,74.3787 43.5,77C 40.9568,77.1397 38.6234,77.8063 36.5,79C 39.5443,79.3589 39.8776,80.0255 37.5,81C 37.8333,81.3333 38.1667,81.6667 38.5,82C 36.0709,82.7033 33.7375,82.5366 31.5,81.5C 28.8333,73.5 28.8333,65.5 31.5,57.5C 34.2971,55.205 36.9638,52.705 39.5,50C 40.1667,49.3333 40.8333,49.3333 41.5,50C 42.1476,55.9328 42.8142,61.7661 43.5,67.5 Z"/></g>
<g><path style="opacity:0.008" fill="#f7d3ce" d="M 123.5,60.5 C 124.338,60.8417 124.672,61.5084 124.5,62.5C 123.833,62.5 123.5,62.8333 123.5,63.5C 122.662,63.1583 122.328,62.4916 122.5,61.5C 123.167,61.5 123.5,61.1667 123.5,60.5 Z"/></g>
<g><path style="opacity:1" fill="#f5773f" d="M 137.5,55.5 C 137.833,55.5 138.167,55.5 138.5,55.5C 139.441,57.0495 140.107,58.7162 140.5,60.5C 142.138,68.0632 142.805,75.7299 142.5,83.5C 142.59,86.1522 141.924,88.4855 140.5,90.5C 135.908,93.5859 131.742,97.2525 128,101.5C 128.135,99.5753 128.302,97.5753 128.5,95.5C 128.5,95.1667 128.5,94.8333 128.5,94.5C 129.451,93.0813 129.784,91.4147 129.5,89.5C 129.5,89.1667 129.5,88.8333 129.5,88.5C 130.696,82.777 130.362,77.1103 128.5,71.5C 128.737,70.209 128.404,69.209 127.5,68.5C 127.5,67.8333 127.167,67.5 126.5,67.5C 126.5,66.8333 126.5,66.1667 126.5,65.5C 125.89,64.609 125.557,63.609 125.5,62.5C 128.564,62.8563 131.231,62.0229 133.5,60C 131.833,59.6667 130.167,59.3333 128.5,59C 131.731,58.1389 134.731,56.9722 137.5,55.5 Z"/></g>
<g><path style="opacity:0.004" fill="#f7d5d2" d="M 124.5,62.5 C 124.833,62.5 125.167,62.5 125.5,62.5C 125.557,63.609 125.89,64.609 126.5,65.5C 125.662,65.8417 125.328,66.5084 125.5,67.5C 124.655,66.3285 123.989,64.9952 123.5,63.5C 124.167,63.5 124.5,63.1667 124.5,62.5 Z"/></g>
<g><path style="opacity:1" fill="#f1693f" d="M 61.5,65.5 C 62.1667,66.1667 62.8333,66.8333 63.5,67.5C 63.5,67.8333 63.5,68.1667 63.5,68.5C 63.1201,70.698 63.7868,72.3646 65.5,73.5C 65.427,75.0269 66.0937,76.0269 67.5,76.5C 68.412,78.5952 69.5787,80.5952 71,82.5C 71.3826,81.944 71.8826,81.6107 72.5,81.5C 73.6594,83.2503 75.326,84.2503 77.5,84.5C 78.4916,84.3284 79.1583,84.6618 79.5,85.5C 79.5,86.1667 79.8333,86.5 80.5,86.5C 80.5,87.5 80.5,88.5 80.5,89.5C 77.654,89.5897 75.3206,90.7563 73.5,93C 71.8659,93.4935 70.1992,93.6602 68.5,93.5C 67.5,93.5 66.5,93.5 65.5,93.5C 65.1667,93.5 64.8333,93.5 64.5,93.5C 62.7772,91.7819 60.7772,90.4486 58.5,89.5C 58.0269,88.0937 57.0269,87.427 55.5,87.5C 54.8645,85.2054 53.5311,83.5387 51.5,82.5C 49.049,79.2597 47.3824,75.5931 46.5,71.5C 49.408,72.5691 52.408,72.7358 55.5,72C 59.2721,70.6107 59.2721,69.6107 55.5,69C 57.8791,68.2838 59.8791,67.1172 61.5,65.5 Z"/></g>
<g><path style="opacity:0.337" fill="#f6d2cd" d="M 100.5,61.5 C 102.411,62.075 104.078,63.075 105.5,64.5C 105.557,65.609 105.89,66.609 106.5,67.5C 105.5,67.8333 104.833,68.5 104.5,69.5C 103.542,69.0472 102.708,68.3805 102,67.5C 101.823,71.3563 101.323,75.023 100.5,78.5C 100.174,74.1161 100.508,69.7828 101.5,65.5C 102.478,65.9767 103.311,66.6433 104,67.5C 104.167,67.1667 104.333,66.8333 104.5,66.5C 103.143,64.8144 101.81,63.1477 100.5,61.5 Z"/></g>
<g><path style="opacity:0.169" fill="#f0cecb" d="M 106.5,67.5 C 107.906,67.9731 108.573,68.9731 108.5,70.5C 107.833,70.5 107.167,70.5 106.5,70.5C 106.5,69.5 106.5,68.5 106.5,67.5 Z"/></g>
<g><path style="opacity:0.042" fill="#f7dce0" d="M 72.5,67.5 C 72.6653,71.1817 72.4986,74.8484 72,78.5C 71.2828,77.9558 70.7828,77.2891 70.5,76.5C 71.1667,73.5 71.8333,70.5 72.5,67.5 Z"/></g>
<g><path style="opacity:0.067" fill="#f7dad9" d="M 127.5,68.5 C 128.404,69.209 128.737,70.209 128.5,71.5C 127.833,71.5 127.5,71.8333 127.5,72.5C 126.596,71.791 126.263,70.791 126.5,69.5C 127.167,69.5 127.5,69.1667 127.5,68.5 Z"/></g>
<g><path style="opacity:0.969" fill="#f9ab98" d="M 63.5,68.5 C 64.5375,69.9303 65.2041,71.597 65.5,73.5C 63.7868,72.3646 63.1201,70.698 63.5,68.5 Z"/></g>
<g><path style="opacity:0.247" fill="#f2cbc2" d="M 104.5,69.5 C 105.167,69.8333 105.833,70.1667 106.5,70.5C 106.5,71.1667 106.5,71.8333 106.5,72.5C 105.094,72.0269 104.427,71.0269 104.5,69.5 Z"/></g>
<g><path style="opacity:0.443" fill="#f8c6b8" d="M 140.5,60.5 C 141.776,62.5625 142.61,64.8958 143,67.5C 143.817,73.0164 143.651,78.3497 142.5,83.5C 142.805,75.7299 142.138,68.0632 140.5,60.5 Z"/></g>
<g><path style="opacity:0.192" fill="#f8cbc5" d="M 65.5,73.5 C 66.9063,73.9731 67.573,74.9731 67.5,76.5C 66.0937,76.0269 65.427,75.0269 65.5,73.5 Z"/></g>
<g><path style="opacity:0.98" fill="#f9ab9a" d="M 44.5,72.5 C 45.4582,74.3024 46.1249,76.3024 46.5,78.5C 44.7202,77.0101 44.0535,75.0101 44.5,72.5 Z"/></g>
<g><path style="opacity:0.013" fill="#f7dcda" d="M 128.5,71.5 C 130.362,77.1103 130.696,82.777 129.5,88.5C 129.672,87.5084 129.338,86.8417 128.5,86.5C 128.81,83.2869 128.477,80.2869 127.5,77.5C 127.5,76.1667 127.5,74.8333 127.5,73.5C 128.338,73.1583 128.672,72.4916 128.5,71.5 Z"/></g>
<g><path style="opacity:0.941" fill="#f9a993" d="M 67.5,76.5 C 69.5,77.8333 71.1667,79.5 72.5,81.5C 71.8826,81.6107 71.3826,81.944 71,82.5C 69.5787,80.5952 68.412,78.5952 67.5,76.5 Z"/></g>
<g><path style="opacity:1" fill="#f5803f" d="M 104.5,69.5 C 104.427,71.0269 105.094,72.0269 106.5,72.5C 107.338,72.8417 107.672,73.5084 107.5,74.5C 108.487,79.1173 109.154,83.784 109.5,88.5C 109.5,88.8333 109.5,89.1667 109.5,89.5C 108.262,91.2143 107.595,93.2143 107.5,95.5C 106.527,95.9867 105.527,96.4867 104.5,97C 100.241,100.752 96.5747,104.918 93.5,109.5C 93.5,110.167 93.1667,110.5 92.5,110.5C 91.209,110.263 90.209,110.596 89.5,111.5C 88.5084,111.328 87.8417,111.662 87.5,112.5C 86.5084,112.328 85.8417,112.662 85.5,113.5C 84.1667,113.5 82.8333,113.5 81.5,113.5C 77.1667,113.5 72.8333,113.5 68.5,113.5C 67.8333,113.5 67.1667,113.5 66.5,113.5C 66.5,112.833 66.1667,112.5 65.5,112.5C 63.597,112.204 61.9303,111.537 60.5,110.5C 61.552,110.649 62.552,110.483 63.5,110C 63.1667,109.667 62.8333,109.333 62.5,109C 66.1667,106 69.8333,103 73.5,100C 72.4019,99.2303 72.4019,98.397 73.5,97.5C 76.3854,97.8064 79.0521,97.4731 81.5,96.5C 84.3135,94.9303 87.3135,93.5969 90.5,92.5C 93.5,91.5 95.5,89.5 96.5,86.5C 97.9063,86.0269 98.573,85.0269 98.5,83.5C 98.7959,81.597 99.4625,79.9303 100.5,78.5C 101.323,75.023 101.823,71.3563 102,67.5C 102.708,68.3805 103.542,69.0472 104.5,69.5 Z"/></g>
<g><path style="opacity:1" fill="#f57a41" d="M 119.5,59.5 C 120.167,59.8333 120.833,60.1667 121.5,60.5C 121.833,60.5 122.167,60.5 122.5,60.5C 122.5,60.8333 122.5,61.1667 122.5,61.5C 122.328,62.4916 122.662,63.1583 123.5,63.5C 123.989,64.9952 124.655,66.3285 125.5,67.5C 125.833,67.5 126.167,67.5 126.5,67.5C 126.5,68.1667 126.5,68.8333 126.5,69.5C 126.263,70.791 126.596,71.791 127.5,72.5C 127.5,72.8333 127.5,73.1667 127.5,73.5C 127.5,74.8333 127.5,76.1667 127.5,77.5C 127.5,82.1667 127.5,86.8333 127.5,91.5C 127.5,91.8333 127.5,92.1667 127.5,92.5C 116.062,103.437 104.728,114.604 93.5,126C 91.3885,126.845 89.3885,127.678 87.5,128.5C 84.9387,129.767 82.272,129.767 79.5,128.5C 77.0948,127.232 74.4282,126.565 71.5,126.5C 69.2972,126.396 67.2972,125.73 65.5,124.5C 65.0269,123.094 64.0269,122.427 62.5,122.5C 63.9559,119.569 63.1226,118.902 60,120.5C 59.3076,119.975 58.8076,119.308 58.5,118.5C 61.1547,118.025 63.1547,116.691 64.5,114.5C 65.1667,114.5 65.8333,114.5 66.5,114.5C 66.8333,114.5 67.1667,114.5 67.5,114.5C 73.1667,115.833 78.8333,115.833 84.5,114.5C 84.8333,114.5 85.1667,114.5 85.5,114.5C 87.698,114.88 89.3646,114.213 90.5,112.5C 90.8333,112.5 91.1667,112.5 91.5,112.5C 92.4916,112.672 93.1583,112.338 93.5,111.5C 94.5,111.167 95.1667,110.5 95.5,109.5C 96.4916,109.672 97.1583,109.338 97.5,108.5C 99.0269,108.573 100.027,107.906 100.5,106.5C 101.167,106.5 101.5,106.167 101.5,105.5C 102.167,105.5 102.5,105.167 102.5,104.5C 103.167,104.5 103.5,104.167 103.5,103.5C 104.5,102.833 105.5,102.167 106.5,101.5C 107.906,101.027 108.573,100.027 108.5,98.5C 109.038,96.8828 109.371,95.2161 109.5,93.5C 110.451,92.0813 110.784,90.4147 110.5,88.5C 111.828,82.4448 111.161,76.4448 108.5,70.5C 108.573,68.9731 107.906,67.9731 106.5,67.5C 105.89,66.609 105.557,65.609 105.5,64.5C 108.647,65.2014 111.813,64.8681 115,63.5C 117.141,62.8794 118.641,61.546 119.5,59.5 Z"/></g>
<g><path style="opacity:1" fill="#f46e45" d="M 43.5,68.5 C 44.4345,69.5676 44.7678,70.901 44.5,72.5C 44.0535,75.0101 44.7202,77.0101 46.5,78.5C 47.6737,79.5137 48.3404,80.847 48.5,82.5C 48.427,84.0269 49.0937,85.0269 50.5,85.5C 51.5,85.8333 52.1667,86.5 52.5,87.5C 52.427,89.0269 53.0937,90.0269 54.5,90.5C 53.4019,91.397 53.4019,92.2303 54.5,93C 50.4612,95.9969 46.1278,97.4969 41.5,97.5C 40.1667,96.5 38.8333,95.5 37.5,94.5C 34.6981,90.5613 32.6981,86.228 31.5,81.5C 33.7375,82.5366 36.0709,82.7033 38.5,82C 38.1667,81.6667 37.8333,81.3333 37.5,81C 39.8776,80.0255 39.5443,79.3589 36.5,79C 38.6234,77.8063 40.9568,77.1397 43.5,77C 43.2964,74.3787 43.2964,71.5453 43.5,68.5 Z"/></g>
<g><path style="opacity:0.016" fill="#eed3d2" d="M 72.5,81.5 C 74.674,81.7497 76.3406,82.7497 77.5,84.5C 75.326,84.2503 73.6594,83.2503 72.5,81.5 Z"/></g>
<g><path style="opacity:0.031" fill="#f9dbd7" d="M 107.5,74.5 C 109.735,78.7874 110.735,83.4541 110.5,88.5C 110.167,88.5 109.833,88.5 109.5,88.5C 109.154,83.784 108.487,79.1173 107.5,74.5 Z"/></g>
<g><path style="opacity:0.302" fill="#f8c5bd" d="M 48.5,82.5 C 49.9063,82.9731 50.573,83.9731 50.5,85.5C 49.0937,85.0269 48.427,84.0269 48.5,82.5 Z"/></g>
<g><path style="opacity:0.663" fill="#fab3a4" d="M 51.5,82.5 C 53.5311,83.5387 54.8645,85.2054 55.5,87.5C 53.457,86.4206 52.1237,84.754 51.5,82.5 Z"/></g>
<g><path style="opacity:0.322" fill="#f7cdc0" d="M 98.5,83.5 C 98.573,85.0269 97.9063,86.0269 96.5,86.5C 96.427,84.9731 97.0937,83.9731 98.5,83.5 Z"/></g>
<g><path style="opacity:1" fill="#f68658" d="M 80.5,86.5 C 84.2946,86.6897 87.6279,87.6897 90.5,89.5C 83.9711,94.4737 76.6377,96.1404 68.5,94.5C 68.5,94.1667 68.5,93.8333 68.5,93.5C 70.1992,93.6602 71.8659,93.4935 73.5,93C 75.3206,90.7563 77.654,89.5897 80.5,89.5C 80.5,88.5 80.5,87.5 80.5,86.5 Z"/></g>
<g><path style="opacity:0.949" fill="#f7bba7" d="M 79.5,85.5 C 83.6933,86.4532 87.8599,86.4532 92,85.5C 93.5848,87.2012 93.0848,88.5346 90.5,89.5C 87.6279,87.6897 84.2946,86.6897 80.5,86.5C 79.8333,86.5 79.5,86.1667 79.5,85.5 Z"/></g>
<g><path style="opacity:0.906" fill="#fab090" d="M 96.5,86.5 C 95.5,89.5 93.5,91.5 90.5,92.5C 92.1667,90.1667 94.1667,88.1667 96.5,86.5 Z"/></g>
<g><path style="opacity:0.729" fill="#f9beb2" d="M 52.5,87.5 C 53.8333,88.1667 54.8333,89.1667 55.5,90.5C 55.1667,90.5 54.8333,90.5 54.5,90.5C 53.0937,90.0269 52.427,89.0269 52.5,87.5 Z"/></g>
<g><path style="opacity:0.478" fill="#f8bcaf" d="M 55.5,87.5 C 57.0269,87.427 58.0269,88.0937 58.5,89.5C 56.9731,89.573 55.9731,88.9063 55.5,87.5 Z"/></g>
<g><path style="opacity:0.038" fill="#f8c8b9" d="M 127.5,77.5 C 128.477,80.2869 128.81,83.2869 128.5,86.5C 128.263,87.791 128.596,88.791 129.5,89.5C 129.784,91.4147 129.451,93.0813 128.5,94.5C 128.737,93.209 128.404,92.209 127.5,91.5C 127.5,86.8333 127.5,82.1667 127.5,77.5 Z"/></g>
<g><path style="opacity:0.004" fill="#f7d7d4" d="M 56.5,91.5 C 58.0269,91.427 59.0269,92.0937 59.5,93.5C 57.9731,93.573 56.9731,92.9063 56.5,91.5 Z"/></g>
<g><path style="opacity:0.008" fill="#f8ddd9" d="M 109.5,89.5 C 109.5,90.8333 109.5,92.1667 109.5,93.5C 108.833,94.1667 108.167,94.8333 107.5,95.5C 107.595,93.2143 108.262,91.2143 109.5,89.5 Z"/></g>
<g><path style="opacity:1" fill="#f99562" d="M 140.5,90.5 C 139.172,95.1651 136.839,99.1651 133.5,102.5C 132.094,102.973 131.427,103.973 131.5,105.5C 127.461,110.54 122.794,114.873 117.5,118.5C 115.302,118.591 114.969,117.925 116.5,116.5C 116.5,115.833 116.5,115.167 116.5,114.5C 117.167,114.5 117.5,114.167 117.5,113.5C 118.167,113.5 118.5,113.167 118.5,112.5C 119.167,112.5 119.5,112.167 119.5,111.5C 120.338,111.158 120.672,110.492 120.5,109.5C 121.167,109.5 121.5,109.167 121.5,108.5C 122.338,108.158 122.672,107.492 122.5,106.5C 123.338,106.158 123.672,105.492 123.5,104.5C 124.338,104.158 124.672,103.492 124.5,102.5C 124.833,102.5 125.167,102.5 125.5,102.5C 126.338,102.158 126.672,101.492 126.5,100.5C 126.5,99.8333 126.5,99.1667 126.5,98.5C 127.404,97.791 127.737,96.791 127.5,95.5C 127.833,95.5 128.167,95.5 128.5,95.5C 128.302,97.5753 128.135,99.5753 128,101.5C 131.742,97.2525 135.908,93.5859 140.5,90.5 Z"/></g>
<g><path style="opacity:1" fill="#f17340" d="M 54.5,90.5 C 54.8333,90.5 55.1667,90.5 55.5,90.5C 56.1667,90.5 56.5,90.8333 56.5,91.5C 56.9731,92.9063 57.9731,93.573 59.5,93.5C 63.5561,96.626 68.2228,97.9593 73.5,97.5C 72.4019,98.397 72.4019,99.2303 73.5,100C 69.8333,103 66.1667,106 62.5,109C 62.8333,109.333 63.1667,109.667 63.5,110C 62.552,110.483 61.552,110.649 60.5,110.5C 56.5412,109.406 52.8745,107.739 49.5,105.5C 47.4504,103.453 45.117,101.786 42.5,100.5C 42.4431,99.391 42.1098,98.391 41.5,97.5C 46.1278,97.4969 50.4612,95.9969 54.5,93C 53.4019,92.2303 53.4019,91.397 54.5,90.5 Z"/></g>
<g><path style="opacity:0.025" fill="#f7d7d7" d="M 37.5,94.5 C 38.8333,95.5 40.1667,96.5 41.5,97.5C 42.1098,98.391 42.4431,99.391 42.5,100.5C 40.8712,99.3747 39.3712,98.0414 38,96.5C 37.6012,96.7284 37.4346,97.0618 37.5,97.5C 36.1667,96.5 36.1667,95.5 37.5,94.5 Z"/></g>
<g><path style="opacity:1" fill="#f78a4f" d="M 127.5,92.5 C 127.5,93.5 127.5,94.5 127.5,95.5C 126.596,96.209 126.263,97.209 126.5,98.5C 126.167,98.5 125.833,98.5 125.5,98.5C 124.596,99.209 124.263,100.209 124.5,101.5C 124.5,101.833 124.5,102.167 124.5,102.5C 123.662,102.842 123.328,103.508 123.5,104.5C 122.662,104.842 122.328,105.508 122.5,106.5C 121.662,106.842 121.328,107.508 121.5,108.5C 120.833,108.5 120.5,108.833 120.5,109.5C 119.662,109.842 119.328,110.508 119.5,111.5C 118.833,111.5 118.5,111.833 118.5,112.5C 117.833,112.5 117.5,112.833 117.5,113.5C 116.833,113.5 116.5,113.833 116.5,114.5C 116.167,114.5 115.833,114.5 115.5,114.5C 114.5,114.833 113.833,115.5 113.5,116.5C 113.5,116.833 113.5,117.167 113.5,117.5C 112.833,117.5 112.5,117.833 112.5,118.5C 111.833,118.5 111.5,118.833 111.5,119.5C 110.833,119.5 110.5,119.833 110.5,120.5C 109.391,120.557 108.391,120.89 107.5,121.5C 105.973,121.427 104.973,122.094 104.5,123.5C 101.364,122.979 99.0304,123.979 97.5,126.5C 94.3209,127.793 90.9876,128.46 87.5,128.5C 89.3885,127.678 91.3885,126.845 93.5,126C 104.728,114.604 116.062,103.437 127.5,92.5 Z"/></g>
<g><path style="opacity:0.014" fill="#f3d5d3" d="M 58.5,89.5 C 60.7772,90.4486 62.7772,91.7819 64.5,93.5C 63.7611,93.369 63.0944,93.5357 62.5,94C 64.0444,95.1871 65.7111,95.5205 67.5,95C 66.5842,94.7216 65.9175,94.2216 65.5,93.5C 66.5,93.5 67.5,93.5 68.5,93.5C 68.5,93.8333 68.5,94.1667 68.5,94.5C 72.3727,96.4302 76.706,97.0969 81.5,96.5C 79.0521,97.4731 76.3854,97.8064 73.5,97.5C 68.2228,97.9593 63.5561,96.626 59.5,93.5C 60.2389,93.631 60.9056,93.4643 61.5,93C 60.2899,91.9609 59.2899,90.7942 58.5,89.5 Z M 64.5,93.5 C 64.8333,93.5 65.1667,93.5 65.5,93.5C 65.9175,94.2216 66.5842,94.7216 67.5,95C 65.7111,95.5205 64.0444,95.1871 62.5,94C 63.0944,93.5357 63.7611,93.369 64.5,93.5 Z"/></g>
<g><path style="opacity:1" fill="#faa270" d="M 107.5,95.5 C 107.167,96.8333 106.833,98.1667 106.5,99.5C 104.738,100.262 103.738,101.596 103.5,103.5C 102.833,103.5 102.5,103.833 102.5,104.5C 101.833,104.5 101.5,104.833 101.5,105.5C 100.833,105.5 100.5,105.833 100.5,106.5C 98.9731,106.427 97.9731,107.094 97.5,108.5C 96.5084,108.328 95.8417,108.662 95.5,109.5C 94.8333,109.5 94.1667,109.5 93.5,109.5C 96.5747,104.918 100.241,100.752 104.5,97C 105.527,96.4867 106.527,95.9867 107.5,95.5 Z"/></g>
<g><path style="opacity:0.51" fill="#f8bba5" d="M 108.5,98.5 C 108.573,100.027 107.906,101.027 106.5,101.5C 106.5,100.833 106.5,100.167 106.5,99.5C 107.167,99.1667 107.833,98.8333 108.5,98.5 Z"/></g>
<g><path style="opacity:0.102" fill="#f7d7d1" d="M 125.5,98.5 C 125.328,99.4916 125.662,100.158 126.5,100.5C 126.672,101.492 126.338,102.158 125.5,102.5C 125.5,101.833 125.167,101.5 124.5,101.5C 124.263,100.209 124.596,99.209 125.5,98.5 Z"/></g>
<g><path style="opacity:0.235" fill="#f1b7ae" d="M 42.5,100.5 C 45.117,101.786 47.4504,103.453 49.5,105.5C 48.8333,105.5 48.5,105.833 48.5,106.5C 46.4946,104.666 44.3279,102.999 42,101.5C 41.5357,102.094 41.369,102.761 41.5,103.5C 39.6736,101.853 38.3403,99.8525 37.5,97.5C 37.4346,97.0618 37.6012,96.7284 38,96.5C 39.3712,98.0414 40.8712,99.3747 42.5,100.5 Z"/></g>
<g><path style="opacity:0.027" fill="#f8d6cd" d="M 133.5,102.5 C 133.573,104.027 132.906,105.027 131.5,105.5C 131.427,103.973 132.094,102.973 133.5,102.5 Z"/></g>
<g><path style="opacity:1" fill="#f4754e" d="M 48.5,106.5 C 53.5545,109.694 58.8878,112.361 64.5,114.5C 63.1547,116.691 61.1547,118.025 58.5,118.5C 58.8076,119.308 59.3076,119.975 60,120.5C 63.1226,118.902 63.9559,119.569 62.5,122.5C 53.949,117.952 46.949,111.619 41.5,103.5C 41.369,102.761 41.5357,102.094 42,101.5C 44.3279,102.999 46.4946,104.666 48.5,106.5 Z"/></g>
<g><path style="opacity:0.027" fill="#f7dad5" d="M 89.5,111.5 C 90.209,110.596 91.209,110.263 92.5,110.5C 92.5,111.167 92.8333,111.5 93.5,111.5C 93.1583,112.338 92.4916,112.672 91.5,112.5C 91.1583,111.662 90.4916,111.328 89.5,111.5 Z"/></g>
<g><path style="opacity:0.031" fill="#f7dad9" d="M 48.5,106.5 C 48.5,105.833 48.8333,105.5 49.5,105.5C 52.8745,107.739 56.5412,109.406 60.5,110.5C 61.9303,111.537 63.597,112.204 65.5,112.5C 66.1667,112.5 66.5,112.833 66.5,113.5C 66.5,113.833 66.5,114.167 66.5,114.5C 65.8333,114.5 65.1667,114.5 64.5,114.5C 58.8878,112.361 53.5545,109.694 48.5,106.5 Z"/></g>
<g><path style="opacity:0.097" fill="#f7d7d3" d="M 68.5,113.5 C 72.8333,113.5 77.1667,113.5 81.5,113.5C 82.209,114.404 83.209,114.737 84.5,114.5C 78.8333,115.833 73.1667,115.833 67.5,114.5C 68.1667,114.5 68.5,114.167 68.5,113.5 Z"/></g>
<g><path style="opacity:0.902" fill="#fab8a1" d="M 87.5,112.5 C 87.8417,111.662 88.5084,111.328 89.5,111.5C 89.5,112.167 89.8333,112.5 90.5,112.5C 89.3646,114.213 87.698,114.88 85.5,114.5C 85.5,114.167 85.5,113.833 85.5,113.5C 87.4008,113.754 88.0674,113.42 87.5,112.5 Z"/></g>
<g><path style="opacity:0.576" fill="#f9c8b6" d="M 115.5,114.5 C 115.328,115.492 115.662,116.158 116.5,116.5C 114.969,117.925 115.302,118.591 117.5,118.5C 115.324,120.515 112.824,122.182 110,123.5C 109.53,122.423 109.697,121.423 110.5,120.5C 111.167,120.5 111.5,120.167 111.5,119.5C 112.167,119.5 112.5,119.167 112.5,118.5C 113.167,118.5 113.5,118.167 113.5,117.5C 114.833,117.167 114.833,116.833 113.5,116.5C 113.833,115.5 114.5,114.833 115.5,114.5 Z"/></g>
<g><path style="opacity:0.004" fill="#f3dbd9" d="M 107.5,121.5 C 107.027,122.906 106.027,123.573 104.5,123.5C 104.973,122.094 105.973,121.427 107.5,121.5 Z"/></g>
<g><path style="opacity:0.196" fill="#f8cdc5" d="M 62.5,122.5 C 64.0269,122.427 65.0269,123.094 65.5,124.5C 63.9731,124.573 62.9731,123.906 62.5,122.5 Z"/></g>
<g><path style="opacity:1" fill="#fbb596" d="M 104.5,123.5 C 102.351,124.736 100.018,125.736 97.5,126.5C 99.0304,123.979 101.364,122.979 104.5,123.5 Z"/></g>
<g><path style="opacity:0.369" fill="#f8c9bd" d="M 71.5,126.5 C 74.4282,126.565 77.0948,127.232 79.5,128.5C 76.5049,128.706 73.8383,128.04 71.5,126.5 Z"/></g>
</svg>
